<svg version="1.1" id="Layer_1" xmlns="http://www.w3.org/2000/svg" xmlns:xlink="http://www.w3.org/1999/xlink" x="0px" y="0px"
	 width="100%" viewBox="0 0 1024 1024" enable-background="new 0 0 1024 1024" xml:space="preserve">
<path fill="#000000" opacity="1.000000" stroke="none" 
	d="
M543.706665,371.000000 
	C543.704407,361.836456 543.742615,353.172638 543.690308,344.509399 
	C543.638306,335.889740 538.267090,330.339264 529.751343,330.333435 
	C473.438263,330.295044 417.125183,330.297058 360.812103,330.333862 
	C351.982819,330.339630 346.359253,335.859802 346.343170,344.595093 
	C346.283356,377.083282 346.285370,409.571686 346.343140,442.059875 
	C346.359558,451.281281 351.800446,456.620880 360.914093,456.687897 
	C365.412201,456.720978 369.911346,456.772125 374.408600,456.712006 
	C377.153503,456.675323 378.310120,457.906982 378.286591,460.627930 
	C378.224609,467.791412 378.191162,474.956848 378.295624,482.119293 
	C378.341034,485.232758 376.791809,486.198395 373.989075,486.191559 
	C362.993347,486.164734 351.976532,486.623352 341.006805,486.091949 
	C326.399933,485.384308 312.836884,470.668030 312.757263,455.318787 
	C312.543762,414.168030 312.525360,373.014496 312.763367,331.863983 
	C312.863586,314.533051 327.384064,300.805817 344.757751,300.802063 
	C411.733704,300.787689 478.709656,300.786316 545.685608,300.802795 
	C563.072632,300.807068 577.237671,314.892822 577.241943,332.133606 
	C577.252075,373.285431 577.252197,414.437286 577.239319,455.589111 
	C577.234314,471.559753 562.925049,486.117432 546.983643,486.205688 
	C529.323853,486.303467 511.662109,486.111755 494.003510,486.283020 
	C489.514343,486.326569 487.644135,484.945312 487.892517,480.261932 
	C488.200836,474.447968 488.198090,468.588013 487.845062,462.777405 
	C487.545532,457.846802 489.527161,456.508087 494.219025,456.618774 
	C505.708344,456.889832 517.208679,456.722473 528.704468,456.683868 
	C538.429810,456.651215 543.691040,451.299500 543.696655,441.472260 
	C543.709900,418.148163 543.705017,394.824097 543.706665,371.000000 
z"/>
<path fill="#000000" opacity="1.000000" stroke="none" 
	d="
M621.999817,550.345520 
	C575.354492,550.349731 529.205566,550.032715 483.065765,550.542847 
	C468.178986,550.707397 451.096191,538.800964 450.869904,518.524475 
	C450.420074,478.214874 450.422089,437.893097 450.878937,397.583618 
	C451.104889,377.646210 467.837189,364.715271 483.476410,365.496948 
	C500.426361,366.344116 517.452393,365.804565 534.442505,365.618347 
	C538.697266,365.571716 540.523071,366.776855 540.318726,371.253052 
	C540.037903,377.404144 540.081543,383.583099 540.295837,389.739319 
	C540.442627,393.956238 538.620361,395.230682 534.622192,395.172546 
	C523.130005,395.005463 511.633636,395.081024 500.139160,395.120453 
	C489.579071,395.156647 484.358490,400.135345 484.327545,410.673248 
	C484.234070,442.491486 484.242157,474.310303 484.333740,506.128571 
	C484.361633,515.830872 489.547455,520.929016 499.222961,520.952332 
	C530.541687,521.027832 561.860596,521.036987 593.179321,520.982788 
	C596.972107,520.976196 600.338501,521.771484 603.573425,523.800110 
	C615.844788,531.495850 628.196899,539.062561 640.503357,546.702576 
	C641.575745,547.368347 642.977600,547.795898 643.219421,550.345276 
	C636.256897,550.345276 629.378357,550.345276 621.999817,550.345520 
z"/>
<path fill="#000000" opacity="1.000000" stroke="none" 
	d="
M700.645996,370.201019 
	C710.656494,376.971710 715.414307,386.023529 715.383667,397.831482 
	C715.279053,438.160583 715.025269,478.493591 715.481445,518.817749 
	C715.673462,535.787292 699.770569,551.592896 683.748413,550.466309 
	C674.296204,549.801697 664.756470,550.224548 655.261047,550.410217 
	C651.511658,550.483459 649.730774,549.449219 649.887268,545.370911 
	C650.129944,539.047302 650.079224,532.705627 649.933899,526.376587 
	C649.846558,522.572937 651.337524,520.852966 655.210510,520.971863 
	C659.538818,521.104858 663.876892,521.051086 668.207581,520.947021 
	C676.939087,520.737183 682.477295,515.731262 682.545959,507.043915 
	C682.721130,484.882172 682.529358,462.717346 682.453796,440.553864 
	C682.419739,430.560028 682.077576,420.561096 682.306091,410.574310 
	C682.528625,400.846069 677.456665,395.111511 667.703003,395.100128 
	C640.705750,395.068573 613.708435,395.119843 586.711121,395.113251 
	C579.800659,395.111572 579.735962,395.004395 579.740479,388.107269 
	C579.744385,382.107971 579.816650,376.107666 579.727844,370.109741 
	C579.680725,366.925873 581.042358,365.671631 584.222595,365.676392 
	C618.885681,365.728394 653.548950,365.669006 688.211853,365.758392 
	C692.628540,365.769775 696.588074,367.742981 700.645996,370.201019 
z"/>
<path fill="#000000" opacity="1.000000" stroke="none" 
	d="
M459.916748,635.022156 
	C469.125824,644.223511 471.062042,654.813110 466.755890,666.417664 
	C462.817444,677.031311 452.637207,683.275085 440.380859,683.305786 
	C433.232330,683.323669 426.078522,683.143921 418.937195,683.370422 
	C414.973022,683.496216 413.714172,681.920654 413.744995,678.111206 
	C413.867279,662.983887 413.843109,647.854492 413.731812,632.726868 
	C413.707092,629.366455 414.865173,627.850037 418.331482,627.899841 
	C426.475800,628.016907 434.633331,627.705688 442.764923,628.052063 
	C449.051880,628.319824 454.655884,630.936401 459.916748,635.022156 
M456.670624,657.233032 
	C457.874329,647.738342 451.883728,639.332825 441.023041,637.769104 
	C437.764526,637.299927 434.404449,637.536255 431.090942,637.448242 
	C427.605652,637.355652 425.946533,638.871704 426.040497,642.534851 
	C426.197876,648.671814 425.985840,654.817871 426.114807,660.956177 
	C426.428284,675.875183 422.910889,673.814331 440.010406,673.532410 
	C449.301575,673.379211 455.354126,667.186340 456.670624,657.233032 
z"/>
<path fill="#000000" opacity="1.000000" stroke="none" 
	d="
M557.394409,656.272217 
	C554.599792,658.688660 556.005920,660.553528 557.546509,662.490784 
	C562.603027,668.849121 567.619019,675.239685 572.709900,681.693054 
	C566.590820,684.962036 560.282104,683.752930 556.538757,679.032532 
	C553.358337,675.022034 550.365356,670.837585 546.580994,667.332581 
	C541.937439,669.599487 539.546753,672.760620 540.232605,677.778320 
	C540.847351,682.276184 538.659424,683.432251 534.433411,683.436523 
	C530.183533,683.440796 528.552673,682.256714 528.610046,677.760010 
	C528.828735,660.616882 528.698303,643.469360 528.698303,626.552063 
	C531.229248,624.754333 533.625732,625.865051 535.877686,625.612976 
	C539.151001,625.246521 540.317566,626.844788 540.275879,629.995850 
	C540.181030,637.160095 540.264465,644.326660 540.274353,651.492310 
	C540.276611,653.120789 540.274658,654.749268 540.274658,657.752747 
	C545.162476,653.053284 549.544800,649.524963 553.070618,645.284424 
	C557.991821,639.365723 563.980713,640.448669 571.278931,641.204407 
	C566.305054,646.601013 561.964966,651.310059 557.394409,656.272217 
z"/>
<path fill="#000000" opacity="1.000000" stroke="none" 
	d="
M434.979370,486.225616 
	C417.977478,486.226196 401.471924,486.226196 385.034088,486.226196 
	C384.891663,483.569733 386.240692,483.308777 387.157806,482.735931 
	C400.142151,474.625946 413.051270,466.389587 426.176971,458.514496 
	C432.580627,454.672455 439.825989,457.155518 446.691620,456.991119 
	C448.551880,456.946564 448.678894,459.011200 448.669006,460.503021 
	C448.620483,467.823181 448.412994,475.143188 448.443848,482.462463 
	C448.456177,485.374908 447.071350,486.261017 444.463989,486.213593 
	C441.468964,486.159119 438.471924,486.216339 434.979370,486.225616 
z"/>
<path fill="#000000" opacity="1.000000" stroke="none" 
	d="
M587.865662,641.201782 
	C602.943604,639.244751 611.062256,643.205627 615.146362,654.169189 
	C615.378906,654.793518 615.621643,655.418762 615.788696,656.062012 
	C618.071045,664.850281 616.971863,666.290100 608.012207,666.287842 
	C600.598450,666.285950 593.184692,666.287537 585.544983,666.287537 
	C587.689148,673.664795 596.843994,676.243896 604.044006,672.221497 
	C605.942383,671.160950 607.443420,669.744751 609.773804,671.784302 
	C614.384216,675.819153 614.305786,677.938416 608.956970,681.054382 
	C600.176819,686.169128 587.218079,684.980530 579.936340,678.392395 
	C573.010925,672.126648 570.935181,661.686462 574.850586,652.666199 
	C577.321045,646.974731 581.611267,643.285889 587.865662,641.201782 
M603.855408,658.479492 
	C605.404053,657.725159 604.842834,656.632324 604.283020,655.588745 
	C602.059265,651.443054 598.369873,649.929993 593.939636,650.342407 
	C589.356262,650.768921 586.024780,652.993896 584.589539,658.592834 
	C591.101624,658.592834 597.126160,658.592834 603.855408,658.479492 
z"/>
<path fill="#000000" opacity="1.000000" stroke="none" 
	d="
M494.938995,684.278564 
	C482.137665,683.124939 476.670410,677.168518 476.664337,664.836731 
	C476.661041,658.170227 476.856689,651.496887 476.612793,644.839478 
	C476.431335,639.887512 479.749725,640.798096 482.646515,640.638916 
	C485.692505,640.471497 488.296875,640.416260 488.155670,644.804749 
	C487.941467,651.463501 488.139893,658.135437 488.155518,664.801758 
	C488.165985,669.254944 489.666046,672.690613 494.486053,673.623962 
	C499.825134,674.657959 503.907043,672.501709 505.700531,667.633423 
	C507.662567,662.307617 506.324280,656.729614 506.696594,651.277710 
	C506.730591,650.780029 506.701050,650.278076 506.700928,649.778076 
	C506.698364,639.762268 507.387787,639.224731 518.305664,641.376770 
	C518.305664,648.679199 518.305847,656.129028 518.305603,663.578796 
	C518.305420,667.745361 518.310059,671.911926 518.302795,676.078491 
	C518.290161,683.269470 516.517273,685.282593 509.841949,682.968628 
	C505.917389,681.608215 503.088745,682.746948 499.775940,683.457764 
	C498.318054,683.770569 496.843353,684.004822 494.938995,684.278564 
z"/>
</svg>